# xmcd CD database file
#
# Track frame offsets:
#	150
#	26437
#	42087
#	53955
#	86225
#	98320
#	118580
#	140102
#	151502
#	163435
#
# Disc length: 2510 seconds
#
# Revision: 1
# Processed by: cddbd v1.5.2PL0 Copyright (c) Steve Scherf et al.
# Submitted via: CDex 1.81
#
DISCID=7a09cc0a
DTITLE=varios - Lo mejor de la Historia del Jazz
DYEAR=2008
DGENRE=Jazz
TTITLE0=Basin street blues-Louis Armstrong
TTITLE1=Body and Soul-Coleman Hawkins, Tony Scott and The All Stars
TTITLE2=See-line woman-Nina Simone
TTITLE3=Watermelon man-Herbie Hancock
TTITLE4=Sumertime-Ella Fitzgerald
TTITLE5=Waltz for RuthPat Metheny and Charlie Haden
TTITLE6=Mood IndigoCharles Mingus
TTITLE7=Parisian Thoroughfare-Bud Powell
TTITLE8=Lady sings the blues-Billie Holiday
TTITLE9=Waltz for DebbyBill Evans
EXTD=YEAR: 2008
EXTT0=
EXTT1=
EXTT2=
EXTT3=
EXTT4=
EXTT5=
EXTT6=
EXTT7=
EXTT8=
EXTT9=
PLAYORDER=
